<svg width="17" height="15" viewBox="0 0 17 15" fill="none" xmlns="http://www.w3.org/2000/svg">
<path d="M16.007 2.33678C15.9907 2.57336 15.8996 2.7916 15.7583 2.97006C15.629 3.07012 15.4993 3.17675 15.3792 3.28734C15.376 3.28711 15.3694 3.28666 15.3691 3.28995C12.3363 5.88097 10.0332 9.21219 8.79945 13.0098C8.79639 13.0063 8.79661 13.003 8.79048 12.996C8.52076 13.7434 7.73454 14.2572 6.84234 14.1958C6.08183 14.1435 5.44834 13.6872 5.17955 13.0745C5.14683 12.9732 5.11365 12.8785 5.08092 12.7772C5.07785 12.7737 5.07127 12.7732 5.0715 12.7699C4.2285 10.358 2.94747 8.11076 1.30813 6.11949C1.27395 6.08742 1.24351 6.04902 1.21966 6.01106C1.0434 5.78434 0.953516 5.50414 0.973631 5.21169C1.02087 4.52494 1.66177 4.00778 2.40582 4.05895C2.68895 4.07843 2.93703 4.17472 3.14528 4.32111C3.14834 4.32462 3.14834 4.32462 3.15493 4.32507C3.23249 4.39974 3.31641 4.47814 3.39681 4.5596C3.39965 4.5664 3.40885 4.57694 3.41827 4.58419C4.72908 5.86947 6.01702 7.72763 6.96906 9.27546C8.65508 6.30788 10.9105 3.33324 13.8095 1.38999C13.9172 1.31486 14.0249 1.23974 14.1355 1.17141C14.3335 1.08268 14.5583 1.03542 14.802 1.05217C15.5131 1.10109 16.0522 1.6796 16.007 2.33678Z" fill="#40BE46"/>
</svg>
